<svg width="73" height="51" viewBox="0 0 73 51" fill="none" xmlns="http://www.w3.org/2000/svg">
  <path d="M17.056 31H9.568L6.016 16.312L2.88 31H0L4.32 10.68H11.968L15.328 25.56L18.496 10.68H21.44L17.056 31ZM23.2178 10.68H30.5138L31.6018 24.44L38.2578 10.68H41.4258L31.9538 31H24.4018L23.2178 10.68ZM48.5635 19.512L56.4675 10.648H60.0835L52.9155 18.424L57.7795 31H50.8035L47.9875 22.072L46.0995 31H39.1875L43.5075 10.68H50.4515L48.5635 19.512ZM60.9603 13.976C62.2829 13.784 63.4776 13.3893 64.5443 12.792C65.6323 12.1947 66.4963 11.4907 67.1363 10.68H72.0323L67.6803 31H60.7682L63.9363 16.12H60.4803L60.9603 13.976Z" fill="#ffffff"/>
  <path d="M23.5547 46.1719C22.4609 46.1719 21.5807 46.1354 20.9141 46.0625C20.2526 45.9896 19.75 45.8542 19.4062 45.6562C19.0677 45.4583 18.8385 45.1771 18.7188 44.8125C18.6042 44.4479 18.5469 43.974 18.5469 43.3906H19.9844C19.9844 43.7188 20.0078 43.9844 20.0547 44.1875C20.1016 44.3854 20.2344 44.5391 20.4531 44.6484C20.6719 44.7526 21.026 44.8255 21.5156 44.8672C22.0104 44.9036 22.7031 44.9219 23.5938 44.9219C24.5365 44.9219 25.2682 44.9036 25.7891 44.8672C26.3151 44.8255 26.6927 44.7526 26.9219 44.6484C27.151 44.5391 27.2891 44.3828 27.3359 44.1797C27.388 43.9766 27.4141 43.7083 27.4141 43.375C27.4141 42.9688 27.3776 42.6641 27.3047 42.4609C27.2318 42.2578 27.0599 42.1224 26.7891 42.0547C26.5182 41.9818 26.0859 41.9427 25.4922 41.9375L21.9141 41.8984C20.9922 41.888 20.2891 41.8099 19.8047 41.6641C19.3203 41.5182 18.9896 41.263 18.8125 40.8984C18.6354 40.5286 18.5469 40.0052 18.5469 39.3281C18.5469 38.6979 18.6432 38.2109 18.8359 37.8672C19.0339 37.5234 19.3411 37.2786 19.7578 37.1328C20.1745 36.987 20.7161 36.901 21.3828 36.875C22.0495 36.8438 22.8542 36.8281 23.7969 36.8281C24.9062 36.8281 25.7865 36.862 26.4375 36.9297C27.0938 36.9974 27.5833 37.125 27.9062 37.3125C28.2344 37.5 28.4479 37.7734 28.5469 38.1328C28.651 38.487 28.7031 38.9505 28.7031 39.5234H27.2656C27.2656 39.1849 27.2422 38.9193 27.1953 38.7266C27.1484 38.5286 27.0208 38.3854 26.8125 38.2969C26.6094 38.2031 26.276 38.1432 25.8125 38.1172C25.3542 38.0911 24.7083 38.0781 23.875 38.0781C22.9271 38.0781 22.1901 38.0885 21.6641 38.1094C21.138 38.1302 20.7578 38.1797 20.5234 38.2578C20.2891 38.3359 20.1458 38.4609 20.0938 38.6328C20.0417 38.7995 20.0156 39.0312 20.0156 39.3281C20.0156 39.6302 20.0312 39.8698 20.0625 40.0469C20.099 40.2188 20.1901 40.349 20.3359 40.4375C20.4818 40.526 20.7188 40.5859 21.0469 40.6172C21.3802 40.6432 21.8438 40.6589 22.4375 40.6641L25.5234 40.6953C26.4505 40.7057 27.1536 40.7839 27.6328 40.9297C28.1172 41.0703 28.4453 41.3333 28.6172 41.7188C28.7943 42.099 28.8828 42.651 28.8828 43.375C28.8828 44.026 28.7865 44.5391 28.5938 44.9141C28.4062 45.2891 28.1042 45.5677 27.6875 45.75C27.2708 45.9271 26.7214 46.0417 26.0391 46.0938C25.362 46.1458 24.5339 46.1719 23.5547 46.1719ZM35.0547 46C34.138 46 33.4036 45.9089 32.8516 45.7266C32.2995 45.5391 31.8984 45.2109 31.6484 44.7422C31.4036 44.2682 31.2812 43.6042 31.2812 42.75V34.5391H32.7812V37H38.3203V38.2344H32.7812V42.75C32.7812 43.3333 32.8333 43.7682 32.9375 44.0547C33.0469 44.3411 33.263 44.5286 33.5859 44.6172C33.9141 44.7057 34.4036 44.75 35.0547 44.75C35.6328 44.75 36.0859 44.7318 36.4141 44.6953C36.7474 44.6589 36.9922 44.5625 37.1484 44.4062C37.3047 44.2448 37.4036 43.9818 37.4453 43.6172C37.487 43.2526 37.5078 42.7396 37.5078 42.0781H38.8359C38.8359 42.9427 38.7812 43.6354 38.6719 44.1562C38.5677 44.6771 38.3776 45.0703 38.1016 45.3359C37.8307 45.6016 37.4479 45.7786 36.9531 45.8672C36.4635 45.9557 35.8307 46 35.0547 46ZM45.7891 46.1719C44.7839 46.1719 43.9297 46.1198 43.2266 46.0156C42.5234 45.9167 41.9557 45.7109 41.5234 45.3984C41.0911 45.0807 40.776 44.6068 40.5781 43.9766C40.3802 43.3464 40.2812 42.5052 40.2812 41.4531C40.2812 40.4323 40.3802 39.6146 40.5781 39C40.776 38.3854 41.0911 37.9219 41.5234 37.6094C41.9557 37.2969 42.5234 37.0885 43.2266 36.9844C43.9297 36.8802 44.7839 36.8281 45.7891 36.8281C46.7995 36.8281 47.6536 36.8802 48.3516 36.9844C49.0547 37.0885 49.6224 37.2969 50.0547 37.6094C50.487 37.9219 50.8021 38.3854 51 39C51.1979 39.6146 51.2969 40.4323 51.2969 41.4531C51.2969 42.5052 51.1979 43.3464 51 43.9766C50.8021 44.6068 50.487 45.0807 50.0547 45.3984C49.6224 45.7109 49.0547 45.9167 48.3516 46.0156C47.6536 46.1198 46.7995 46.1719 45.7891 46.1719ZM49.7969 41.4531C49.7969 40.7083 49.7578 40.112 49.6797 39.6641C49.6068 39.2161 49.4427 38.8802 49.1875 38.6562C48.9323 38.4271 48.5339 38.2734 47.9922 38.1953C47.4557 38.1172 46.7214 38.0781 45.7891 38.0781C44.862 38.0781 44.1276 38.1172 43.5859 38.1953C43.0443 38.2734 42.6458 38.4271 42.3906 38.6562C42.1354 38.8802 41.9688 39.2161 41.8906 39.6641C41.8177 40.112 41.7812 40.7083 41.7812 41.4531C41.7812 42.224 41.8177 42.8411 41.8906 43.3047C41.9688 43.7682 42.1354 44.1172 42.3906 44.3516C42.6458 44.5807 43.0443 44.7344 43.5859 44.8125C44.1276 44.8854 44.862 44.9219 45.7891 44.9219C46.7214 44.9219 47.4557 44.8854 47.9922 44.8125C48.5339 44.7344 48.9323 44.5807 49.1875 44.3516C49.4427 44.1172 49.6068 43.7682 49.6797 43.3047C49.7578 42.8411 49.7969 42.224 49.7969 41.4531ZM53.2031 46V37H54.7031V38.2422C54.8698 37.9766 55.0365 37.7552 55.2031 37.5781C55.375 37.401 55.5964 37.2604 55.8672 37.1562C56.1432 37.0521 56.5156 36.9792 56.9844 36.9375C57.4531 36.8906 58.0703 36.8672 58.8359 36.8672V38.125C57.8047 38.125 57.0052 38.1615 56.4375 38.2344C55.875 38.3073 55.4714 38.4323 55.2266 38.6094C54.9818 38.7812 54.8333 39.0208 54.7812 39.3281C54.7292 39.6354 54.7031 40.026 54.7031 40.5V46H53.2031ZM71.0547 43.3281C71.0547 44 70.9531 44.5286 70.75 44.9141C70.5521 45.2995 70.2474 45.5807 69.8359 45.7578C69.4245 45.9349 68.8984 46.0469 68.2578 46.0938C67.6224 46.1458 66.8646 46.1719 65.9844 46.1719C64.9792 46.1719 64.125 46.1198 63.4219 46.0156C62.724 45.9167 62.1589 45.7109 61.7266 45.3984C61.2995 45.0807 60.987 44.6068 60.7891 43.9766C60.5964 43.3464 60.5 42.5052 60.5 41.4531C60.5 40.4323 60.5938 39.6146 60.7812 39C60.974 38.3854 61.2839 37.9219 61.7109 37.6094C62.138 37.2969 62.6979 37.0885 63.3906 36.9844C64.0885 36.8802 64.9401 36.8281 65.9453 36.8281C67.0964 36.8281 68.0495 36.9089 68.8047 37.0703C69.5599 37.2318 70.1224 37.5391 70.4922 37.9922C70.8672 38.4453 71.0547 39.1094 71.0547 39.9844V41.9141H62.0078C62.013 42.5807 62.0599 43.1146 62.1484 43.5156C62.237 43.9167 62.4141 44.2188 62.6797 44.4219C62.9453 44.625 63.3411 44.7604 63.8672 44.8281C64.3984 44.8906 65.1042 44.9219 65.9844 44.9219C66.776 44.9219 67.4141 44.9062 67.8984 44.875C68.388 44.8438 68.7578 44.776 69.0078 44.6719C69.263 44.5625 69.4349 44.401 69.5234 44.1875C69.612 43.974 69.6562 43.6875 69.6562 43.3281H71.0547ZM65.9453 38.0781C65.0964 38.0781 64.4115 38.1094 63.8906 38.1719C63.375 38.2344 62.9818 38.3568 62.7109 38.5391C62.4401 38.7161 62.2552 38.9818 62.1562 39.3359C62.0625 39.6901 62.013 40.1562 62.0078 40.7344H69.6172V39.9844C69.6172 39.6094 69.5729 39.2995 69.4844 39.0547C69.401 38.8047 69.2344 38.6094 68.9844 38.4688C68.7344 38.3229 68.3646 38.2214 67.875 38.1641C67.3906 38.1068 66.7474 38.0781 65.9453 38.0781Z" fill="#3A9000"/>
</svg>
